<svg version="1.1" xmlns="http://www.w3.org/2000/svg" xmlns:xlink="http://www.w3.org/1999/xlink" width="9.31482" height="4.77746" viewBox="0,0,9.31482,4.77746"><g transform="translate(-235.34259,-177.57903)"><g data-paper-data="{&quot;isPaintingLayer&quot;:true}" fill-rule="nonzero" stroke-linecap="butt" stroke-linejoin="miter" stroke-miterlimit="10" stroke-dasharray="" stroke-dashoffset="0" style="mix-blend-mode: normal"><path d="M238.06481,182.10649v-4.22222h4.10648v4.22222z" data-paper-data="{&quot;index&quot;:null}" fill="#666666" stroke="#666666" stroke-width="0.5"/><path d="M242.32408,182.33797c-1.28867,0 -2.33334,-1.04467 -2.33334,-2.33334c0,-1.28867 1.04467,-2.33334 2.33334,-2.33334c1.28867,0 2.33333,1.04467 2.33333,2.33334c0,1.28867 -1.04466,2.33334 -2.33333,2.33334z" data-paper-data="{&quot;index&quot;:null}" fill="#666666" stroke="none" stroke-width="0"/><path d="M237.67592,182.3287c-1.28867,0 -2.33333,-1.04466 -2.33333,-2.33333c0,-1.28867 1.04466,-2.33334 2.33333,-2.33334c1.28867,0 2.33334,1.04467 2.33334,2.33334c0,1.28867 -1.04467,2.33333 -2.33334,2.33333z" data-paper-data="{&quot;index&quot;:null}" fill="#5eff00" stroke="none" stroke-width="0"/><text transform="translate(235.7762,181.21755) scale(0.07205,0.07205)" font-size="40" xml:space="preserve" fill="#3ba100" fill-rule="nonzero" stroke="none" stroke-width="1" stroke-linecap="butt" stroke-linejoin="miter" stroke-miterlimit="10" stroke-dasharray="" stroke-dashoffset="0" font-family="Pixel" font-weight="normal" text-anchor="start" style="mix-blend-mode: normal"><tspan x="0" dy="0">On</tspan></text></g></g></svg>