<svg version="1.1" xmlns="http://www.w3.org/2000/svg" xmlns:xlink="http://www.w3.org/1999/xlink" width="9.09253" height="4.72222" viewBox="0,0,9.09253,4.72222"><g transform="translate(-235.47222,-177.63429)"><g data-paper-data="{&quot;isPaintingLayer&quot;:true}" fill-rule="nonzero" stroke-linecap="butt" stroke-linejoin="miter" stroke-miterlimit="10" stroke-dasharray="" stroke-dashoffset="0" style="mix-blend-mode: normal"><path d="M237.95833,182.10651v-4.22222h4.10648v4.22222z" data-paper-data="{&quot;index&quot;:null}" fill="#999999" stroke="#999999" stroke-width="0.5"/><path d="M235.47222,180.00464c0,-1.28867 1.04466,-2.33334 2.33333,-2.33334c1.28867,0 2.33334,1.04467 2.33334,2.33334c0,1.28867 -1.04467,2.33334 -2.33334,2.33334c-1.28867,0 -2.33333,-1.04467 -2.33333,-2.33334z" data-paper-data="{&quot;index&quot;:null}" fill="#999999" stroke="none" stroke-width="0"/><path d="M239.86111,179.99539c0,-1.28867 1.04467,-2.33334 2.33334,-2.33334c1.28867,0 2.33333,1.04467 2.33333,2.33334c0,1.28867 -1.04466,2.33333 -2.33333,2.33333c-1.28867,0 -2.33334,-1.04466 -2.33334,-2.33333z" fill="#ff6666" stroke="none" stroke-width="0"/><text transform="translate(240.19391,180.8676) scale(0.05363,0.05363)" font-size="40" xml:space="preserve" fill="#e42e2e" fill-rule="nonzero" stroke="none" stroke-width="1" stroke-linecap="butt" stroke-linejoin="miter" stroke-miterlimit="10" stroke-dasharray="" stroke-dashoffset="0" font-family="Pixel" font-weight="normal" text-anchor="start" style="mix-blend-mode: normal"><tspan x="0" dy="0">Off</tspan></text></g></g></svg>